<svg xmlns="http://www.w3.org/2000/svg" viewBox="0 0 100 100">

<path fill="#00000" d="M50 8.75C27.255 8.75 8.75 27.255 8.75 50c0 22.928 18.796 41.25 41.25 41.25 10.374 0 19.84-3.879 27.096-10.225 6.167.769 5.915 10.357 9.791 10.357a2.515 2.515 0 0 0 2.224-1.314c.939-1.778.772-9.636-1.037-13.939-.871-2.073-2.016-3.47-3.064-4.421 3.93-6.315 6.24-13.738 6.24-21.707C91.25 27.255 72.745 8.75 50 8.75zm-11.213 6.264c1.064 2.318 1.601 5.372.05 8.134-5.208-1.047-7.601 3.085-9.027 5.571-.543.945-1.104 1.923-1.604 2.351-.68.583-1.718 1.011-2.817 1.465-2.246.926-5.039 2.08-6.163 5.29-.999 2.856-.275 4.825.363 6.562.412 1.116.835 2.271.964 3.938.133 1.737-.297 3.587-.797 5.73-.674 2.889-1.51 6.483-1.194 11.071.132 1.922.48 3.722.981 5.42A36.547 36.547 0 0 1 13.25 50c0-16.354 10.742-30.233 25.537-34.986zm5.623 22.804c-.22-.593-.701-1.718-.633-2.292A15.608 15.608 0 0 1 50 34.25c1.429 0 2.788.253 4.104.611-2.662 7.743-4.475 16.789 7.349 24.963-1.959 2.036-4.419 3.663-7.049 4.731-7.223-1.945-10.367-6.322-12.934-13.796 1.891-1.179 3.632-2.798 4.306-5.498.563-2.245-.461-5.007-1.366-7.443zm19.715 18.404c-8.717-5.903-8.466-11.654-5.86-19.569C62.74 39.434 65.75 44.355 65.75 50c0 2.223-.6 4.321-1.625 6.222zm-26.703-3.338c1.773 5.02 4.243 9.778 9.039 13.024-4.392-.333-8.874-2.56-10.973-5.575-1.169-1.679-1.444-3.388-.819-5.08.364-.983 1.423-1.68 2.753-2.369zm47.301 27.807c-.901-1.08-2.327-2.322-4.074-3.181a41.57 41.57 0 0 0 1.732-2.038c1.383 1.484 1.965 3.195 2.342 5.219zM50 86.75c-12.708 0-26.047-8.876-26.949-21.935-.27-3.914.42-6.876 1.088-9.74.558-2.401 1.087-4.668.901-7.096-.176-2.291-.759-3.875-1.228-5.146-.552-1.504-.806-2.191-.338-3.524.435-1.242 1.663-1.803 3.631-2.616 1.314-.542 2.802-1.156 4.028-2.206 1.088-.935 1.846-2.253 2.578-3.529 1.718-2.994 2.496-3.801 4.336-3.397 1.075.237 1.818.608 2.089 1.046.47.76.057 2.405-.306 3.858-.397 1.576-.806 3.207-.397 4.704.164.601.444 1.368.757 2.213.505 1.359 1.444 3.891 1.22 4.787-.466 1.863-2.09 2.771-4.711 4.046-2.414 1.173-5.152 2.505-6.25 5.476-1.135 3.064-.658 6.337 1.343 9.212 3.104 4.458 9.593 7.572 15.779 7.572 2.326 0 4.707-.435 7.017-1.203.099.022.187.051.287.072l.038-.181C63.1 66.318 70.25 59.053 70.25 50c0-11.167-9.083-20.25-20.25-20.25-1.775 0-3.511.224-5.193.669.127-1.402-.019-2.849-.844-4.181-.344-.556-.817-1.024-1.352-1.448 2.095-4.49 4.091-5.54 9.053-7.057-3.961-.59-6.349-1.245-9.903 3.927 1.192-2.626.503-5.188-1.269-7.119 3.038-.816 6.215-1.292 9.508-1.292 20.265 0 36.75 16.485 36.75 36.75S70.265 86.75 50 86.75z"/>

</svg>